<mxfile host="app.diagrams.net" modified="2024-07-03T16:08:37.714Z" agent="Mozilla/5.0 (Macintosh; Intel Mac OS X 10_15_7) AppleWebKit/605.1.15 (KHTML, like Gecko) Version/17.5 Safari/605.1.15" etag="6Nfh7-UHPBrKbNlYkzGd" version="24.6.4" type="device">
  <diagram name="Página-1" id="2zJY32k2ogWp5r39hOMj">
    <mxGraphModel dx="1114" dy="622" grid="1" gridSize="10" guides="1" tooltips="1" connect="1" arrows="1" fold="1" page="1" pageScale="1" pageWidth="827" pageHeight="1169" math="0" shadow="0">
      <root>
        <mxCell id="0" />
        <mxCell id="1" parent="0" />
        <mxCell id="yZmSUoEyAUrRw3SVILEg-34" style="edgeStyle=orthogonalEdgeStyle;rounded=0;orthogonalLoop=1;jettySize=auto;html=1;entryX=0.5;entryY=0;entryDx=0;entryDy=0;" edge="1" parent="1" source="yZmSUoEyAUrRw3SVILEg-32" target="yZmSUoEyAUrRw3SVILEg-1">
          <mxGeometry relative="1" as="geometry" />
        </mxCell>
        <mxCell id="yZmSUoEyAUrRw3SVILEg-32" value="" style="rounded=1;whiteSpace=wrap;html=1;" vertex="1" parent="1">
          <mxGeometry x="169" y="70" width="490" height="110" as="geometry" />
        </mxCell>
        <mxCell id="yZmSUoEyAUrRw3SVILEg-35" style="edgeStyle=orthogonalEdgeStyle;rounded=0;orthogonalLoop=1;jettySize=auto;html=1;" edge="1" parent="1" source="yZmSUoEyAUrRw3SVILEg-1" target="yZmSUoEyAUrRw3SVILEg-19">
          <mxGeometry relative="1" as="geometry" />
        </mxCell>
        <mxCell id="yZmSUoEyAUrRw3SVILEg-1" value="API REST&lt;div&gt;(Datos externos)&lt;/div&gt;" style="rounded=1;whiteSpace=wrap;html=1;" vertex="1" parent="1">
          <mxGeometry x="349" y="220" width="130" height="60" as="geometry" />
        </mxCell>
        <mxCell id="yZmSUoEyAUrRw3SVILEg-7" value="" style="edgeStyle=orthogonalEdgeStyle;rounded=0;orthogonalLoop=1;jettySize=auto;html=1;entryX=0;entryY=0.5;entryDx=0;entryDy=0;" edge="1" parent="1" source="yZmSUoEyAUrRw3SVILEg-4" target="yZmSUoEyAUrRw3SVILEg-6">
          <mxGeometry relative="1" as="geometry" />
        </mxCell>
        <mxCell id="yZmSUoEyAUrRw3SVILEg-4" value="SPARK STREAMING&lt;div&gt;(Procesamiento tiempo real)&lt;/div&gt;" style="rounded=1;whiteSpace=wrap;html=1;" vertex="1" parent="1">
          <mxGeometry x="220" y="440" width="130" height="60" as="geometry" />
        </mxCell>
        <mxCell id="yZmSUoEyAUrRw3SVILEg-27" style="edgeStyle=orthogonalEdgeStyle;rounded=0;orthogonalLoop=1;jettySize=auto;html=1;entryX=0.5;entryY=0;entryDx=0;entryDy=0;" edge="1" parent="1" source="yZmSUoEyAUrRw3SVILEg-6" target="yZmSUoEyAUrRw3SVILEg-26">
          <mxGeometry relative="1" as="geometry" />
        </mxCell>
        <mxCell id="yZmSUoEyAUrRw3SVILEg-6" value="DELTA LAKE&lt;div&gt;Databricks&lt;br&gt;&lt;div&gt;(Almacenamiento)&lt;/div&gt;&lt;/div&gt;" style="rounded=1;whiteSpace=wrap;html=1;" vertex="1" parent="1">
          <mxGeometry x="350" y="520" width="130" height="60" as="geometry" />
        </mxCell>
        <mxCell id="yZmSUoEyAUrRw3SVILEg-36" style="edgeStyle=orthogonalEdgeStyle;rounded=0;orthogonalLoop=1;jettySize=auto;html=1;entryX=0;entryY=0.5;entryDx=0;entryDy=0;exitX=0;exitY=0.5;exitDx=0;exitDy=0;" edge="1" parent="1" source="yZmSUoEyAUrRw3SVILEg-12" target="yZmSUoEyAUrRw3SVILEg-32">
          <mxGeometry relative="1" as="geometry">
            <Array as="points">
              <mxPoint x="140" y="750" />
              <mxPoint x="140" y="125" />
            </Array>
          </mxGeometry>
        </mxCell>
        <mxCell id="yZmSUoEyAUrRw3SVILEg-12" value="API REST&lt;div&gt;(Exposición de datos)&lt;/div&gt;" style="rounded=1;whiteSpace=wrap;html=1;" vertex="1" parent="1">
          <mxGeometry x="350" y="720" width="130" height="60" as="geometry" />
        </mxCell>
        <mxCell id="yZmSUoEyAUrRw3SVILEg-14" value="DIAGRAMA ARQUITECTURA" style="text;html=1;align=center;verticalAlign=middle;whiteSpace=wrap;rounded=0;" vertex="1" parent="1">
          <mxGeometry x="314" y="20" width="200" height="30" as="geometry" />
        </mxCell>
        <mxCell id="yZmSUoEyAUrRw3SVILEg-15" value="&lt;div&gt;Métricas / Reportes&lt;/div&gt;&lt;div&gt;Dashboard&lt;br&gt;&lt;/div&gt;&lt;div&gt;(Tableau/Power BI)&lt;/div&gt;" style="rounded=1;whiteSpace=wrap;html=1;" vertex="1" parent="1">
          <mxGeometry x="190" y="100" width="130" height="60" as="geometry" />
        </mxCell>
        <mxCell id="yZmSUoEyAUrRw3SVILEg-24" style="edgeStyle=orthogonalEdgeStyle;rounded=0;orthogonalLoop=1;jettySize=auto;html=1;entryX=0.5;entryY=0;entryDx=0;entryDy=0;exitX=0.5;exitY=1;exitDx=0;exitDy=0;" edge="1" parent="1" source="yZmSUoEyAUrRw3SVILEg-19" target="yZmSUoEyAUrRw3SVILEg-21">
          <mxGeometry relative="1" as="geometry">
            <mxPoint x="414" y="400" as="sourcePoint" />
            <Array as="points">
              <mxPoint x="414" y="410" />
              <mxPoint x="545" y="410" />
            </Array>
          </mxGeometry>
        </mxCell>
        <mxCell id="yZmSUoEyAUrRw3SVILEg-25" style="edgeStyle=orthogonalEdgeStyle;rounded=0;orthogonalLoop=1;jettySize=auto;html=1;entryX=0.5;entryY=0;entryDx=0;entryDy=0;" edge="1" parent="1" source="yZmSUoEyAUrRw3SVILEg-19" target="yZmSUoEyAUrRw3SVILEg-4">
          <mxGeometry relative="1" as="geometry">
            <Array as="points">
              <mxPoint x="415" y="410" />
              <mxPoint x="285" y="410" />
            </Array>
          </mxGeometry>
        </mxCell>
        <mxCell id="yZmSUoEyAUrRw3SVILEg-19" value="&lt;div&gt;KAFKA&lt;/div&gt;&lt;div&gt;(Procesamiento)&lt;/div&gt;" style="rounded=1;whiteSpace=wrap;html=1;" vertex="1" parent="1">
          <mxGeometry x="349" y="320" width="130" height="60" as="geometry" />
        </mxCell>
        <mxCell id="yZmSUoEyAUrRw3SVILEg-23" style="edgeStyle=orthogonalEdgeStyle;rounded=0;orthogonalLoop=1;jettySize=auto;html=1;entryX=1;entryY=0.5;entryDx=0;entryDy=0;exitX=0.5;exitY=1;exitDx=0;exitDy=0;" edge="1" parent="1" source="yZmSUoEyAUrRw3SVILEg-21" target="yZmSUoEyAUrRw3SVILEg-6">
          <mxGeometry relative="1" as="geometry" />
        </mxCell>
        <mxCell id="yZmSUoEyAUrRw3SVILEg-21" value="SPARK BATCH&lt;div&gt;(Procesamiento Lotes)&lt;/div&gt;" style="rounded=1;whiteSpace=wrap;html=1;" vertex="1" parent="1">
          <mxGeometry x="480" y="440" width="130" height="60" as="geometry" />
        </mxCell>
        <mxCell id="yZmSUoEyAUrRw3SVILEg-28" style="edgeStyle=orthogonalEdgeStyle;rounded=0;orthogonalLoop=1;jettySize=auto;html=1;" edge="1" parent="1" source="yZmSUoEyAUrRw3SVILEg-26">
          <mxGeometry relative="1" as="geometry">
            <mxPoint x="415" y="720" as="targetPoint" />
          </mxGeometry>
        </mxCell>
        <mxCell id="yZmSUoEyAUrRw3SVILEg-26" value="KAFKA CONNECT&lt;div&gt;(Ingesta datos)&lt;/div&gt;" style="rounded=1;whiteSpace=wrap;html=1;" vertex="1" parent="1">
          <mxGeometry x="350" y="620" width="130" height="60" as="geometry" />
        </mxCell>
        <mxCell id="yZmSUoEyAUrRw3SVILEg-29" value="&lt;div&gt;Dashboard Gubernamental&lt;/div&gt;" style="rounded=1;whiteSpace=wrap;html=1;" vertex="1" parent="1">
          <mxGeometry x="350" y="100" width="130" height="60" as="geometry" />
        </mxCell>
        <mxCell id="yZmSUoEyAUrRw3SVILEg-30" value="&lt;div&gt;API Pública&lt;br&gt;&lt;/div&gt;&lt;div&gt;(Datos públicos)&lt;/div&gt;" style="rounded=1;whiteSpace=wrap;html=1;" vertex="1" parent="1">
          <mxGeometry x="510" y="100" width="130" height="60" as="geometry" />
        </mxCell>
        <mxCell id="yZmSUoEyAUrRw3SVILEg-33" value="USUARIOS" style="text;html=1;align=center;verticalAlign=middle;whiteSpace=wrap;rounded=0;" vertex="1" parent="1">
          <mxGeometry x="385" y="70" width="60" height="30" as="geometry" />
        </mxCell>
      </root>
    </mxGraphModel>
  </diagram>
</mxfile>
